<?xml version="1.0" encoding="utf-8"?>
<!-- Generator: Adobe Illustrator 25.2.3, SVG Export Plug-In . SVG Version: 6.00 Build 0)  -->
<svg version="1.1" xmlns="http://www.w3.org/2000/svg" xmlns:xlink="http://www.w3.org/1999/xlink" x="0px" y="0px"
	 viewBox="0 0 220 22" style="enable-background:new 0 0 220 22;" xml:space="preserve">
<style type="text/css">
	.st0{fill:#FFFFFF;}
	.st1{clip-path:url(#SVGID_2_);}
	.st2{clip-path:url(#SVGID_4_);}
	.st3{clip-path:url(#SVGID_6_);}
	.st4{clip-path:url(#SVGID_8_);}
</style>
<g id="Layer_2">
</g>
<g id="Layer_1">
	<g id="Layer_2_1_">
		<g id="Layer_1-2">
			<path class="st0" d="M63.5,5.6h2.4v10.8h-2.4V5.6z"/>
			<path class="st0" d="M70.8,5.6h3.2l4.6,7.5l0,0V5.6h2.4v10.8h-3l-4.7-7.7l0,0v7.7h-2.5V5.6z"/>
			<path class="st0" d="M86.1,5.6h7.3v2.2h-4.9V10H93v2.2h-4.5v4.2h-2.4V5.6z"/>
			<path class="st0" d="M97.8,5.6h2.4v10.8h-2.4V5.6z"/>
			<path class="st0" d="M105.1,5.6h3.2l4.6,7.5l0,0V5.6h2.4v10.8h-3.1l-4.7-7.7l0,0v7.7h-2.4L105.1,5.6z"/>
			<path class="st0" d="M120.3,5.6h2.4v10.8h-2.4V5.6z"/>
			<path class="st0" d="M129.7,7.7h-3.1V5.6h8.6v2.1h-3.1v8.7h-2.4V7.7z"/>
			<path class="st0" d="M141.8,11.8l-4.1-6.2h3l2.3,4.1l2.4-4.1h2.8l-4.1,6.2v4.6h-2.4L141.8,11.8z"/>
			<path class="st0" d="M152.4,14.2c0.2,0.4,0.6,0.7,1,0.9c0.4,0.2,0.8,0.3,1.3,0.3c0.3,0,0.5,0,0.8-0.1c0.3-0.1,0.5-0.2,0.7-0.3
				c0.2-0.1,0.4-0.3,0.5-0.6c0.1-0.2,0.2-0.5,0.2-0.8c0-0.4-0.1-0.8-0.4-1c-0.3-0.2-0.6-0.4-1-0.6c-0.4-0.1-0.8-0.3-1.3-0.4
				c-0.5-0.1-0.9-0.3-1.3-0.6c-0.4-0.3-0.7-0.6-1-1c-0.3-0.5-0.4-1.1-0.4-1.7c0-0.3,0.1-0.7,0.2-1c0.1-0.4,0.4-0.7,0.6-1
				c0.3-0.3,0.7-0.6,1.1-0.7c0.5-0.2,1.1-0.3,1.7-0.3c0.6,0,1.1,0.1,1.7,0.2c0.6,0.2,1.1,0.5,1.4,1L157,7.6
				c-0.2-0.3-0.4-0.5-0.7-0.6c-0.4-0.2-0.8-0.3-1.1-0.3c-0.3,0-0.7,0-1,0.2c-0.2,0.1-0.5,0.2-0.7,0.4c-0.2,0.2-0.3,0.3-0.4,0.6
				c-0.1,0.2-0.1,0.3-0.1,0.5c0,0.4,0.1,0.8,0.4,1.1c0.3,0.3,0.6,0.5,1,0.6c0.4,0.2,0.8,0.3,1.3,0.4c0.4,0.1,0.9,0.3,1.3,0.5
				c0.4,0.2,0.7,0.5,1,0.9c0.3,0.5,0.4,1,0.4,1.5c0,0.5-0.1,1-0.3,1.4c-0.2,0.4-0.5,0.8-0.8,1.1c-0.4,0.3-0.8,0.5-1.2,0.7
				c-0.5,0.2-1,0.2-1.5,0.2c-0.7,0-1.4-0.1-2-0.4c-0.6-0.2-1.1-0.6-1.5-1.1L152.4,14.2z"/>
			<path class="st0" d="M165.6,7h-3.5V5.6h8.4V7H167v9.4h-1.5L165.6,7z"/>
			<path class="st0" d="M176.1,5.6v6.6c0,0.3,0,0.7,0.1,1c0.1,0.4,0.3,0.7,0.5,1c0.2,0.3,0.5,0.6,0.8,0.8c0.8,0.4,1.8,0.4,2.6,0
				c0.3-0.2,0.6-0.4,0.8-0.8c0.2-0.3,0.4-0.6,0.5-1c0.1-0.3,0.1-0.7,0.1-1V5.6h1.5v6.9c0,0.6-0.1,1.2-0.3,1.7
				c-0.2,0.5-0.5,1-0.9,1.3c-0.4,0.4-0.8,0.7-1.3,0.9c-0.5,0.2-1.1,0.3-1.6,0.3c-0.6,0-1.1-0.1-1.6-0.3c-0.5-0.2-1-0.5-1.3-0.9
				c-0.4-0.4-0.7-0.8-0.9-1.3c-0.2-0.5-0.3-1.1-0.3-1.7V5.6H176.1z"/>
			<path class="st0" d="M188.1,5.6h3.8c0.7,0,1.3,0.1,2,0.3c0.5,0.2,1,0.4,1.5,0.7c0.4,0.3,0.8,0.6,1.1,1c0.3,0.4,0.5,0.7,0.7,1.2
				c0.2,0.4,0.3,0.8,0.4,1.2c0.1,0.4,0.1,0.7,0.1,1.1c0,0.7-0.1,1.4-0.4,2c-0.3,0.6-0.7,1.2-1.2,1.7c-0.5,0.5-1.1,1-1.8,1.3
				c-0.8,0.3-1.7,0.5-2.6,0.5h-3.5V5.6z M189.6,15h1.9c0.6,0,1.2-0.1,1.8-0.2c0.5-0.2,1-0.4,1.5-0.8c0.4-0.3,0.8-0.8,1-1.3
				c0.3-0.5,0.4-1.1,0.4-1.7c0-0.4-0.1-0.8-0.2-1.2c-0.1-0.5-0.3-0.9-0.6-1.3c-0.3-0.4-0.8-0.8-1.3-1.1c-0.7-0.3-1.4-0.4-2.2-0.4
				h-2.2V15z"/>
			<path class="st0" d="M202.4,5.6h1.5v10.8h-1.5V5.6z"/>
			<path class="st0" d="M214.4,16.7c-0.8,0-1.6-0.1-2.3-0.4c-0.7-0.3-1.3-0.7-1.8-1.2c-0.5-0.5-0.9-1.1-1.2-1.8
				c-0.6-1.4-0.6-3.1,0-4.5c0.3-0.7,0.7-1.2,1.2-1.8c0.5-0.5,1.1-0.9,1.8-1.2c0.7-0.3,1.5-0.4,2.3-0.4c0.8,0,1.6,0.1,2.3,0.4
				c0.7,0.3,1.3,0.7,1.8,1.2c0.5,0.5,0.9,1.1,1.2,1.8c0.6,1.4,0.6,3.1,0,4.5c-0.3,0.7-0.7,1.3-1.2,1.8c-0.5,0.5-1.1,0.9-1.8,1.2
				C215.9,16.6,215.1,16.7,214.4,16.7z M214.4,15.3c0.6,0,1.1-0.1,1.6-0.3c0.5-0.2,0.9-0.5,1.3-0.9c0.4-0.4,0.6-0.9,0.8-1.4
				c0.4-1.1,0.4-2.3,0-3.3c-0.2-0.5-0.4-1-0.8-1.4c-0.4-0.4-0.8-0.8-1.3-1c-1.1-0.5-2.3-0.5-3.4,0c-0.5,0.2-0.9,0.6-1.2,1
				c-0.4,0.4-0.6,0.9-0.8,1.4c-0.4,1.1-0.4,2.3,0,3.3c0.2,0.5,0.5,0.9,0.8,1.3c0.4,0.4,0.8,0.7,1.3,0.9
				C213.2,15.2,213.8,15.3,214.4,15.3z"/>
			<g>
				<defs>
					<path id="SVGID_1_" d="M30.2,6.1l-2.1-0.7l-13-4.6l-1.1-0.4C13.1,0.2,12,0,11,0C6.3,0,2.1,3,0.6,7.4C0.4,8.1,0.2,8.8,0.1,9.5
						C0,10,0,10.5,0,11c0,6.1,4.9,11,11,11c3.9,0,7.5-2,9.4-5.4l-2.1-0.7c-2.7,4.1-8.2,5.2-12.3,2.5c-2.5-1.6-4-4.4-4-7.4
						c0-0.3,0-0.5,0-0.8c0.1-0.7,0.2-1.4,0.4-2.1c1.5-4.5,6.4-7,10.9-5.7c0.3,0.1,0.6,0.2,0.9,0.3l5.7,2l7.2,2.5l2,0.7L46,13.9
						c0.2-0.7,0.4-1.4,0.4-2.1L30.2,6.1z"/>
				</defs>
				<clipPath id="SVGID_2_">
					<use xlink:href="#SVGID_1_"  style="overflow:visible;"/>
				</clipPath>
				<g class="st1">
					<g>
						<defs>
							<rect id="SVGID_3_" x="-5" y="-5" width="56.5" height="32"/>
						</defs>
						<clipPath id="SVGID_4_">
							<use xlink:href="#SVGID_3_"  style="overflow:visible;"/>
						</clipPath>
						<g class="st2">
							
								<image style="overflow:visible;enable-background:new    ;" width="119" height="67" xlink:href="DA4830FAF7237F0C.png"  transform="matrix(0.48 0 0 0.48 -5.33 -5.07)">
							</image>
						</g>
					</g>
				</g>
			</g>
			<g>
				<defs>
					<path id="SVGID_5_" d="M18.4,15.9l2.1,0.7l13,4.6l1.1,0.4c5.8,1.7,11.9-1.6,13.7-7.5c0.2-0.5,0.3-1.1,0.3-1.6
						c0.1-0.5,0.1-1,0.1-1.5c0-6.1-4.9-11-11-11c-3.9,0-7.4,2-9.4,5.4l2.1,0.7c2.7-4.1,8.2-5.2,12.3-2.5c2.5,1.6,4,4.4,4,7.4
						c0,0.3,0,0.5,0,0.8c-0.1,0.7-0.2,1.4-0.4,2.1c-1.5,4.5-6.3,7-10.9,5.7c-0.3-0.1-0.6-0.2-0.9-0.3l-5.7-2l-7.2-2.5l-2-0.7
						L2.6,8.1c-0.2,0.7-0.4,1.4-0.4,2.1L18.4,15.9z"/>
				</defs>
				<clipPath id="SVGID_6_">
					<use xlink:href="#SVGID_5_"  style="overflow:visible;"/>
				</clipPath>
				<g class="st3">
					<g>
						<defs>
							<rect id="SVGID_7_" x="-2.8" y="-5" width="56.5" height="32"/>
						</defs>
						<clipPath id="SVGID_8_">
							<use xlink:href="#SVGID_7_"  style="overflow:visible;"/>
						</clipPath>
						<g class="st4">
							
								<image style="overflow:visible;enable-background:new    ;" width="118" height="67" xlink:href="DA4830FAF7237F0D.png"  transform="matrix(0.48 0 0 0.48 -2.93 -5.07)">
							</image>
						</g>
					</g>
				</g>
			</g>
		</g>
	</g>
</g>
</svg>
